<svg xmlns="http://www.w3.org/2000/svg" version="1.1" xmlns:xlink="http://www.w3.org/1999/xlink" width="512" height="512" x="0" y="0" viewBox="0 0 32 32" style="enable-background:new 0 0 512 512" xml:space="preserve" class=""><g><path d="m6.803 16.095 8.326 7.568a1.294 1.294 0 0 0 1.742 0l8.325-7.569c.638-.579.228-1.64-.634-1.64h-4.154a.409.409 0 0 1-.408-.408V2.011a.556.556 0 0 0-.557-.556h-6.887A.556.556 0 0 0 12 2.01v12.035a.409.409 0 0 1-.409.409H7.437c-.86 0-1.27 1.06-.634 1.64zM28.083 31H3.917A.917.917 0 0 1 3 30.083v-2.166c0-.506.41-.917.917-.917h24.166c.506 0 .917.41.917.917v2.166c0 .506-.41.917-.917.917z" fill="#eeeeee" opacity="1" data-original="#000000" class=""></path></g></svg>